<svg xmlns="http://www.w3.org/2000/svg" viewBox="0 0 40 40">
<path fill="none" stroke="#28aae1" stroke-width="2" stroke-miterlimit="10" vector-effect="non-scaling-stroke" d="M8.5,6.6L7.7,9.1h0L5.1,9.7L1.5,4.8l1.9-1.9
	L8.5,6.6z M25.7,27.1l-5-5l5.9-5.5c3.1,1.5,6.9,1,9.4-1.6c2.4-2.4,3-5.8,1.8-8.8l-6.6,5.3L28,8.1l5.3-6.6c-2.9-1.1-6.4-0.5-8.8,1.8
	c-2.6,2.6-3.1,6.4-1.5,9.5l-5.5,5.9L7.7,9.1l0,0l9.7,9.7L3.2,33.9l-1.4,2.5l1.3,1.3l2.5-1.4l15.1-14.2L25.7,27.1l-2.6,2.6L33.9,39
	l3.8-3.8l-9.4-10.7L25.7,27.1z"/>
</svg>
