<?xml version="1.0" encoding="iso-8859-1"?>
<!-- Generator: Adobe Illustrator 19.0.0, SVG Export Plug-In . SVG Version: 6.00 Build 0)  -->
<svg version="1.1" id="Capa_1" xmlns="http://www.w3.org/2000/svg" xmlns:xlink="http://www.w3.org/1999/xlink" x="0px" y="0px"
	 viewBox="0 0 496 496" style="enable-background:new 0 0 496 496;" xml:space="preserve">
<g>
	<g>
		<path d="M495.384,4.944c-0.812-1.959-2.369-3.516-4.328-4.328C490.088,0.21,489.049,0.001,488,0H8
			C4.766,0.004,1.852,1.955,0.616,4.944C0.214,5.913,0.005,6.951,0,8v480c0.005,1.049,0.214,2.087,0.616,3.056
			c0.812,1.959,2.369,3.516,4.328,4.328C5.913,495.786,6.951,495.995,8,496h480c1.049-0.005,2.087-0.214,3.056-0.616
			c1.959-0.812,3.516-2.369,4.328-4.328c0.402-0.969,0.611-2.007,0.616-3.056V8C495.995,6.951,495.786,5.913,495.384,4.944z
			 M468.688,16L248,236.688L27.312,16H468.688z M16,27.312L236.688,248L16,468.688V27.312z M27.312,480L248,259.312L468.688,480
			H27.312z M480,468.688L259.312,248L480,27.312V468.688z" style="fill: white;" />
	</g>
</g>
<g>
</g>
<g>
</g>
<g>
</g>
<g>
</g>
<g>
</g>
<g>
</g>
<g>
</g>
<g>
</g>
<g>
</g>
<g>
</g>
<g>
</g>
<g>
</g>
<g>
</g>
<g>
</g>
<g>
</g>
</svg>
